<?xml version="1.0" standalone="no"?>
<!DOCTYPE svg PUBLIC "-//W3C//DTD SVG 1.0//EN" "http://www.w3.org/TR/2001/REC-SVG-20010904/DTD/svg10.dtd">
<svg xmlns="http://www.w3.org/2000/svg" xmlns:xlink="http://www.w3.org/1999/xlink" id="body_1" width="1024" height="768">

<g transform="matrix(16 0 0 16 128 -0)">
	<g>
        <path d="M37.5 8L10.5 8L37.5 8L10.5 8L37.5 8L37.5 8L10.5 8L37.5 8zM19.5 7L28.5 7L19.5 7L28.5 7L19.5 7L19.5 7L28.5 7L19.5 7zM35.5 14L35.5 38L35.5 14L35.5 38L17 38L35.5 14L35.5 38L17 38L17 15.5L35.5 14L35.5 38L17 38L17 15.5L17 38.5L35.5 14L35.5 38L17 38L17 15.5L17 38.5L35.5 14L35.5 38L17 38L17 15.5L17 38.5L31 38.5C 29.275768 35.93647 29.780014 32.48269 32.165195 30.519127C 34.550377 28.555563 38.036697 28.72417 40.221268 30.908737C 42.405834 33.093307 42.57444 36.579628 40.610878 38.96481C 38.647316 41.34999 35.193535 41.854237 32.63 40.13L35.5 14L35.5 38L17 38L17 15.5L17 38.5L31 38.5L32.63 40.13L32.63 17.130001L35.5 14L35.5 38L17 38L17 15.5L17 38.5L31 38.5L32.63 40.13L32.63 17.130001z" stroke="none" fill="#0071B3" fill-rule="nonzero" />
	</g>
    <path d="M17 15.5C 17 14.671573 17.671574 14 18.5 14C 19.328426 14 20 14.671573 20 15.5L20 15.5L20 36.5C 20 37.328426 19.328426 38 18.5 38C 17.671574 38 17 37.328426 17 36.5L17 36.5L17 15.5z" stroke="none" fill="#0071B3" fill-rule="nonzero" />
    <path d="M28 15.5C 28 14.671573 28.671574 14 29.5 14C 30.328426 14 31 14.671573 31 15.5L31 15.5L31 36.5C 31 37.328426 30.328426 38 29.5 38C 28.671574 38 28 37.328426 28 36.5L28 36.5L28 15.5z" stroke="none" fill="#0071B3" fill-rule="nonzero" />
</g>
</svg>